<svg xmlns="http://www.w3.org/2000/svg" width="44.224" height="44" viewBox="0 0 44.224 44">
  <g id="armchair" transform="translate(-1.855 -2)">
    <path id="Path_28" data-name="Path 28" d="M40,13V7a4,4,0,0,0-4-4H12A4,4,0,0,0,8,7v6" fill="none" stroke="#2d2d2d" stroke-linecap="square" stroke-miterlimit="10" stroke-width="2"/>
    <line id="Line_32" data-name="Line 32" x2="22" transform="translate(13 27)" fill="none" stroke="#2d2d2d" stroke-linecap="square" stroke-miterlimit="10" stroke-width="2"/>
    <line id="Line_33" data-name="Line 33" y1="4" transform="translate(9 41)" fill="none" stroke="#2d2d2d" stroke-linecap="square" stroke-miterlimit="10" stroke-width="2"/>
    <line id="Line_34" data-name="Line 34" y1="4" transform="translate(39 41)" fill="none" stroke="#2d2d2d" stroke-linecap="square" stroke-miterlimit="10" stroke-width="2"/>
    <path id="Path_29" data-name="Path 29" d="M40,18a5,5,0,0,0-5,5V33H13V23a5,5,0,1,0-8,3.977V37a4,4,0,0,0,4,4H39a4,4,0,0,0,4-4V26.977A4.985,4.985,0,0,0,40,18Z" fill="none" stroke="#2d2d2d" stroke-linecap="square" stroke-miterlimit="10" stroke-width="2"/>
  </g>
</svg>
