<svg xmlns="http://www.w3.org/2000/svg" width="44.129" height="42.804" viewBox="0 0 44.129 42.804">
  <g id="hand-heart" transform="translate(-1.005 -1.922)">
    <path id="Path_30" data-name="Path 30" d="M39.077,8.5a5.5,5.5,0,0,0-10-3.156,5.5,5.5,0,1,0-8.27,7.153l8.27,8.5,8.27-8.5a5.476,5.476,0,0,0,1.73-4Z" transform="translate(-1.415)" fill="none" stroke="#2d2d2d" stroke-linecap="square" stroke-miterlimit="10" stroke-width="2"/>
    <path id="Path_31" data-name="Path 31" d="M35.422,30l4.168-2.5a2.845,2.845,0,0,1,3.969,1.119l.034.062a3.239,3.239,0,0,1-.668,4l-7.75,6.7a3.714,3.714,0,0,1-1.6.817l-14.7,3.422a3.677,3.677,0,0,1-2.946-.577L6.786,36.672A3.7,3.7,0,0,0,4.668,36H2.005V24l6.779-.789a7.309,7.309,0,0,1,3.525.461l5.218,2.049a7.272,7.272,0,0,0,1.459.406l9.761,1.659A3.166,3.166,0,0,1,31.6,31h0a3.166,3.166,0,0,1-2.856,3.214L18.236,35" fill="none" stroke="#2d2d2d" stroke-linecap="square" stroke-miterlimit="10" stroke-width="2"/>
  </g>
</svg>
