<svg xmlns="http://www.w3.org/2000/svg" width="1164" height="823" viewBox="0 0 1164 823">
  <path id="Path_15" data-name="Path 15" d="M-67.541,198.8C-71.215,137.43-31.346,68.875,21.837,31.438,52.562,9.81,88.131-7.043,127.409-19.878c80.729-26.377,177.748-34.151,265.717-24.987,98.973,10.311,179.127,48.279,237.8,105,30.128,29.127,57.356,59.541,80.68,91.713a329.555,329.555,0,0,1,43.81,84.028c14.3,40.3,33.6,79.216,60.778,116.115,17.942,24.36,38.132,47.64,65.205,67.427,28.675,20.958,62.791,34.584,105.052,35,17.1.168,33.989-2.246,50.77-4.586a229.8,229.8,0,0,1,31.5-2.449c10.606-.018,24.344,6.931,25.9,16.544,2.713,16.745,1.2,33.484,1.073,50.24-.246,33.943-11.751,66.105-29.649,97.268-18.95,33-45.528,62.527-81.146,87.755-37.05,26.238-80.291,45.614-129.365,58.5-35.6,9.347-71.993,15.56-110.207,15.879-6.471.055-13.172-.349-19.622.877H676.576c-14.479-1.03-29.1-1-43.505-2.5-28.417-2.964-55.819-8.8-82.836-15.518-45.509-11.321-88.23-26.472-126.092-47.923-53.554-30.343-89.1-68.545-100.7-117.171a370.892,370.892,0,0,1-9.059-55.96c-4.754-58.177,9.993-114.325,32.822-169.776,16.389-39.812,75.811-118.807,35.927-158.457-7.831-7.785-19.444-13.29-31.683-17.289-16.85-5.506-36.166-8.439-54.055-4.953-36.767,7.164-56.982,36.66-75.381,57.805-14.687,16.882-29.6,33.552-49.846,47.59-20.832,14.442-45.027,23.188-74.025,24.97-39.013,2.4-74.52-4.056-105.2-21.855C-47.365,270.031-65.332,235.714-67.541,198.8Z" transform="translate(67.775 48.552)" fill="#2fc0cc"/>
</svg>
