<svg xmlns="http://www.w3.org/2000/svg" xmlns:xlink="http://www.w3.org/1999/xlink" width="1087" height="501" viewBox="0 0 1087 501">
  <defs>
    <clipPath id="clip-path">
      <rect id="Rectangle_552" data-name="Rectangle 552" width="1087" height="501" transform="translate(139 2483)" fill="none" stroke="#707070" stroke-width="1"/>
    </clipPath>
  </defs>
  <g id="Mask_Group_36" data-name="Mask Group 36" transform="translate(-139 -2483)" clip-path="url(#clip-path)">
    <path id="Path_18" data-name="Path 18" d="M234.034,540.56a1045.7,1045.7,0,0,0,151.049-14.443C536.015,500.958,679.609,455.4,816.32,390.792c53.777-25.414,104.965-54.678,150.374-92.249,40.619-33.61,63.609-74.875,62.132-125.577-1.339-46.026-23.746-84.247-58.687-115.771-34.519-31.141-75-52.442-123.56-58.024C815.5-4.4,780.818,6.753,770.918,37.953c-3.37,10.625-4.189,21.96-7.734,32.52-10.562,31.48-36.866,46.228-69.078,53.075-45.662,9.7-91.99,7.361-138.217,5.236-31.656-1.455-63.283-3.8-94.958-4.4-45.108-.86-90.3-2.637-135.363.213-77.467,4.9-152.607,18.049-217.82,61.285-50.186,33.275-81.71,78.4-97.185,133.728C3.744,343.981.4,368.659-.592,393.724-3.255,461.047,34.941,500.9,95.265,521.809,139.618,537.185,186.042,539.935,234.034,540.56Z" transform="matrix(0.998, 0.07, -0.07, 0.998, 168.246, 2427.738)" fill="#f68c45"/>
  </g>
</svg>
