<svg xmlns="http://www.w3.org/2000/svg" width="672" height="527.983" viewBox="0 0 672 527.983">
  <path id="Path_20" data-name="Path 20" d="M-67.64,110.132c-2.121-39.37,20.9-83.35,51.6-107.367C1.7-11.111,22.233-21.923,44.908-30.157c46.607-16.922,102.618-21.909,153.4-16.03C255.451-39.572,301.725-15.214,335.6,21.177a438.059,438.059,0,0,1,46.578,58.837,220.655,220.655,0,0,1,25.292,53.907c8.255,25.854,19.4,50.82,35.088,74.492,10.358,15.627,22.015,30.563,37.644,43.257,16.555,13.445,36.25,22.187,60.648,22.455,9.871.108,19.622-1.441,29.31-2.942a119.67,119.67,0,0,1,18.185-1.571c6.123-.011,14.054,4.447,14.954,10.614,1.566,10.743.691,21.481.62,32.23-.142,21.776-6.784,42.409-17.117,62.4a170.793,170.793,0,0,1-46.847,56.3c-21.39,16.833-46.353,29.263-74.685,37.528-20.551,6-41.563,9.982-63.625,10.187-3.736.035-7.6-.224-11.328.563H361.953c-8.359-.661-16.8-.641-25.116-1.6-16.405-1.9-32.225-5.645-47.823-9.956-26.273-7.263-50.937-16.983-72.8-30.745-30.918-19.466-51.438-43.974-58.136-75.17a262.415,262.415,0,0,1-5.23-35.9c-2.744-37.322,5.769-73.343,18.949-108.917,9.462-25.541,43.767-76.219,20.741-101.656-4.521-4.994-11.226-8.526-18.291-11.091-9.728-3.532-20.88-5.414-31.207-3.178-21.226,4.6-32.9,23.518-43.519,37.084-8.479,10.83-17.086,21.525-28.777,30.53a76.668,76.668,0,0,1-42.736,16.019c-22.523,1.537-43.022-2.6-60.736-14.021C-55.992,155.83-66.365,133.815-67.64,110.132Z" transform="translate(67.775 48.552)" fill="#2fc0cc"/>
</svg>