<svg xmlns="http://www.w3.org/2000/svg" width="1984" height="520.5" viewBox="0 0 1984 520.5">
  <g id="Path_40" data-name="Path 40" fill="none" opacity="0.1">
    <path d="M27.215,0C12.185,0,0,6.509,0,14.539V505.961c0,8.03,12.185,14.539,27.215,14.539H1956.785c15.031,0,27.215-6.509,27.215-14.539Z" stroke="none"/>
    <path d="M 26.9635009765625 2.0006103515625 C 23.526611328125 2.0177001953125 20.197021484375 2.385009765625 17.062744140625 3.093505859375 C 13.9967041015625 3.7862548828125 11.2550048828125 4.771728515625 8.9134521484375 6.02252197265625 C 6.689453125 7.21051025390625 4.8890380859375 8.62799072265625 3.706787109375 10.12124633789062 C 2.57421875 11.5517578125 2 13.03799438476562 2 14.53900146484375 L 2 505.9609985351562 C 2 507.4620056152344 2.57421875 508.9482421875 3.706787109375 510.3787536621094 C 4.8890380859375 511.8720092773438 6.689453125 513.2894897460938 8.9134521484375 514.4774780273438 C 11.2550048828125 515.728271484375 13.9967041015625 516.7137451171875 17.062744140625 517.406494140625 C 20.2735595703125 518.1322631835938 23.689208984375 518.5 27.2152099609375 518.5 L 1956.784790039062 518.5 C 1960.310791015625 518.5 1963.726440429688 518.1322631835938 1966.937255859375 517.406494140625 C 1970.003295898438 516.7137451171875 1972.744995117188 515.728271484375 1975.086547851562 514.4774780273438 C 1977.310546875 513.2894897460938 1979.110961914062 511.8720092773438 1980.293212890625 510.3787536621094 C 1981.047119140625 509.4264526367188 1981.553588867188 508.4495849609375 1981.807983398438 507.4599609375 L 26.9635009765625 2.0006103515625 M 27.2152099609375 0 L 1984 505.9609985351562 C 1984 513.990478515625 1971.815307617188 520.5 1956.784790039062 520.5 L 27.2152099609375 520.5 C 12.1846923828125 520.5 0 513.990478515625 0 505.9609985351562 L 0 14.53900146484375 C 0 6.509521484375 12.1846923828125 0 27.2152099609375 0 Z" stroke="none" fill="#eb6024"/>
  </g>
</svg>
