<svg xmlns="http://www.w3.org/2000/svg" xmlns:xlink="http://www.w3.org/1999/xlink" width="330" height="234.163" viewBox="0 0 330 234.163">
  <defs>
    <clipPath id="clip-path">
      <rect id="Rectangle_554" data-name="Rectangle 554" width="330" height="234.163" transform="translate(0 0)" fill="none" stroke="#707070" stroke-width="1"/>
    </clipPath>
  </defs>
  <g id="Mask_Group_38" data-name="Mask Group 38" clip-path="url(#clip-path)">
    <path id="Path_21" data-name="Path 21" d="M75.721,251.716a206.139,206.139,0,0,0,45.851-5.029c45.692-10.057,88.913-29.767,129.817-58.489,16.09-11.3,31.347-24.433,44.747-41.529,11.987-15.295,18.514-34.383,17.479-58.18A99.344,99.344,0,0,0,294.4,33.511c-10.876-15-23.455-25.462-38.314-28.641-9.51-2.035-19.947,2.8-22.6,17.315-.9,4.944-1.022,10.251-1.981,15.163-2.854,14.643-10.7,21.256-20.432,24.1-13.8,4.023-27.94,2.39-42.049.859-9.661-1.048-19.324-2.514-28.981-3.162-13.753-.924-27.54-2.28-41.237-1.463-23.544,1.4-46.284,6.7-65.653,26.228C18.245,98.932,9.162,119.735,5.086,145.5a222.8,222.8,0,0,0-2.542,34.634c-.034,31.545,12.063,50.677,30.683,61.181C46.917,249.043,61.092,250.869,75.721,251.716Z" transform="matrix(0.998, 0.07, -0.07, 0.998, 10.272, -21.694)" fill="#f68c45"/>
  </g>
</svg>
