<svg xmlns="http://www.w3.org/2000/svg" width="330" height="308.328" viewBox="0 0 330 308.328">
  <path id="Path_20" data-name="Path 20" d="M-67.709,44.115c-1.042-22.991,10.261-48.674,25.339-62.7A104.1,104.1,0,0,1-12.44-37.81C10.447-47.692,37.953-50.6,62.892-47.171c28.059,3.863,50.783,18.087,67.416,39.339a254.176,254.176,0,0,1,22.873,34.359,141.13,141.13,0,0,1,12.42,31.48,189.575,189.575,0,0,0,17.231,43.5c5.087,9.126,10.811,17.848,18.486,25.261,8.129,7.852,17.8,12.957,29.783,13.113a74.381,74.381,0,0,0,14.393-1.718,49.677,49.677,0,0,1,8.93-.917c3.007-.007,6.9,2.6,7.344,6.2.769,6.273.34,12.544.3,18.822-.07,12.716-3.331,24.766-8.406,36.44a97.893,97.893,0,0,1-23.005,32.876A101.811,101.811,0,0,1,193.987,253.5c-10.092,3.5-20.411,5.83-31.244,5.949a23.689,23.689,0,0,0-5.563.329H143.252c-4.1-.386-8.249-.374-12.334-.936a133.816,133.816,0,0,1-23.484-5.814c-12.9-4.241-25.014-9.918-35.748-17.954-15.183-11.368-25.26-25.68-28.549-43.9a180.509,180.509,0,0,1-2.568-20.965c-1.348-21.8,2.833-42.83,9.305-63.6C54.52,91.69,71.367,62.1,60.059,47.241a22.076,22.076,0,0,0-8.982-6.477C46.3,38.7,40.824,37.6,35.752,38.908,25.329,41.592,19.6,52.643,14.381,60.565,10.217,66.889,5.991,73.134.25,78.393a34.35,34.35,0,0,1-20.986,9.355c-11.06.9-21.127-1.519-29.826-8.188C-61.989,70.8-67.083,57.945-67.709,44.115Z" transform="translate(67.775 48.552)" fill="#2fc0cc"/>
</svg>
