<svg xmlns="http://www.w3.org/2000/svg" width="260" height="563" viewBox="0 0 260 563">
  <g id="Group_65" data-name="Group 65" transform="translate(-15 -2683.027)">
    <ellipse id="Ellipse_121" data-name="Ellipse 121" cx="7.5" cy="8" rx="7.5" ry="8" transform="translate(210 3031.027)" fill="#dbd9d6"/>
    <circle id="Ellipse_122" data-name="Ellipse 122" cx="7.5" cy="7.5" r="7.5" transform="translate(210 2982.027)" fill="#dbd9d6"/>
    <ellipse id="Ellipse_63" data-name="Ellipse 63" cx="7.5" cy="8" rx="7.5" ry="8" transform="translate(210 2683.027)" fill="#ffb164"/>
    <circle id="Ellipse_123" data-name="Ellipse 123" cx="7.5" cy="7.5" r="7.5" transform="translate(210 3081.027)" fill="#dbd9d6"/>
    <circle id="Ellipse_43" data-name="Ellipse 43" cx="8" cy="8" r="8" transform="translate(62 2882.027)" fill="#ffb164"/>
    <ellipse id="Ellipse_92" data-name="Ellipse 92" cx="7.5" cy="8" rx="7.5" ry="8" transform="translate(210 2882.027)" fill="#ffb164"/>
    <ellipse id="Ellipse_64" data-name="Ellipse 64" cx="7.5" cy="8" rx="7.5" ry="8" transform="translate(210 2733.027)" fill="#ffb164"/>
    <circle id="Ellipse_124" data-name="Ellipse 124" cx="7.5" cy="7.5" r="7.5" transform="translate(210 3131.027)" fill="#dbd9d6"/>
    <ellipse id="Ellipse_44" data-name="Ellipse 44" cx="8" cy="7.5" rx="8" ry="7.5" transform="translate(62 2932.027)" fill="#ffb164"/>
    <circle id="Ellipse_97" data-name="Ellipse 97" cx="7.5" cy="7.5" r="7.5" transform="translate(210 2932.027)" fill="#ffb164"/>
    <circle id="Ellipse_69" data-name="Ellipse 69" cx="7.5" cy="7.5" r="7.5" transform="translate(210 2783.027)" fill="#ffb164"/>
    <ellipse id="Ellipse_126" data-name="Ellipse 126" cx="7.5" cy="8" rx="7.5" ry="8" transform="translate(210 3180.027)" fill="#dbd9d6"/>
    <circle id="Ellipse_76" data-name="Ellipse 76" cx="7.5" cy="7.5" r="7.5" transform="translate(210 2833.027)" fill="#ffb164"/>
    <ellipse id="Ellipse_142" data-name="Ellipse 142" cx="7.5" cy="8" rx="7.5" ry="8" transform="translate(210 3230.027)" fill="#dbd9d6"/>
    <circle id="Ellipse_103" data-name="Ellipse 103" cx="8" cy="8" r="8" transform="translate(15 3031.027)" fill="#dbd9d6"/>
    <ellipse id="Ellipse_127" data-name="Ellipse 127" cx="7.5" cy="8" rx="7.5" ry="8" transform="translate(260 3031.027)" fill="#dbd9d6"/>
    <ellipse id="Ellipse_104" data-name="Ellipse 104" cx="8" cy="7.5" rx="8" ry="7.5" transform="translate(15 2982.027)" fill="#dbd9d6"/>
    <circle id="Ellipse_128" data-name="Ellipse 128" cx="7.5" cy="7.5" r="7.5" transform="translate(260 2982.027)" fill="#dbd9d6"/>
    <circle id="Ellipse_24" data-name="Ellipse 24" cx="8" cy="8" r="8" transform="translate(15 2683.027)" fill="#ffb164"/>
    <ellipse id="Ellipse_108" data-name="Ellipse 108" cx="8" cy="7.5" rx="8" ry="7.5" transform="translate(15 3081.027)" fill="#dbd9d6"/>
    <ellipse id="Ellipse_67" data-name="Ellipse 67" cx="7.5" cy="8" rx="7.5" ry="8" transform="translate(260 2683.027)" fill="#ffb164"/>
    <circle id="Ellipse_129" data-name="Ellipse 129" cx="7.5" cy="7.5" r="7.5" transform="translate(260 3081.027)" fill="#dbd9d6"/>
    <circle id="Ellipse_45" data-name="Ellipse 45" cx="8" cy="8" r="8" transform="translate(112 2882.027)" fill="#ffb164"/>
    <circle id="Ellipse_59" data-name="Ellipse 59" cx="8" cy="8" r="8" transform="translate(15 2882.027)" fill="#ffb164"/>
    <ellipse id="Ellipse_94" data-name="Ellipse 94" cx="7.5" cy="8" rx="7.5" ry="8" transform="translate(260 2882.027)" fill="#ffb164"/>
    <circle id="Ellipse_28" data-name="Ellipse 28" cx="8" cy="8" r="8" transform="translate(15 2733.027)" fill="#ffb164"/>
    <ellipse id="Ellipse_114" data-name="Ellipse 114" cx="8" cy="7.5" rx="8" ry="7.5" transform="translate(15 3131.027)" fill="#dbd9d6"/>
    <ellipse id="Ellipse_68" data-name="Ellipse 68" cx="7.5" cy="8" rx="7.5" ry="8" transform="translate(260 2733.027)" fill="#ffb164"/>
    <circle id="Ellipse_130" data-name="Ellipse 130" cx="7.5" cy="7.5" r="7.5" transform="translate(260 3131.027)" fill="#dbd9d6"/>
    <ellipse id="Ellipse_46" data-name="Ellipse 46" cx="8" cy="7.5" rx="8" ry="7.5" transform="translate(112 2932.027)" fill="#ffb164"/>
    <ellipse id="Ellipse_60" data-name="Ellipse 60" cx="8" cy="7.5" rx="8" ry="7.5" transform="translate(15 2932.027)" fill="#ffb164"/>
    <circle id="Ellipse_99" data-name="Ellipse 99" cx="7.5" cy="7.5" r="7.5" transform="translate(260 2932.027)" fill="#ffb164"/>
    <ellipse id="Ellipse_32" data-name="Ellipse 32" cx="8" cy="7.5" rx="8" ry="7.5" transform="translate(15 2783.027)" fill="#ffb164"/>
    <circle id="Ellipse_131" data-name="Ellipse 131" cx="8" cy="8" r="8" transform="translate(15 3180.027)" fill="#dbd9d6"/>
    <circle id="Ellipse_70" data-name="Ellipse 70" cx="7.5" cy="7.5" r="7.5" transform="translate(260 2783.027)" fill="#ffb164"/>
    <ellipse id="Ellipse_132" data-name="Ellipse 132" cx="7.5" cy="8" rx="7.5" ry="8" transform="translate(260 3180.027)" fill="#dbd9d6"/>
    <ellipse id="Ellipse_36" data-name="Ellipse 36" cx="8" cy="7.5" rx="8" ry="7.5" transform="translate(15 2833.027)" fill="#ffb164"/>
    <circle id="Ellipse_143" data-name="Ellipse 143" cx="8" cy="8" r="8" transform="translate(15 3230.027)" fill="#dbd9d6"/>
    <circle id="Ellipse_77" data-name="Ellipse 77" cx="7.5" cy="7.5" r="7.5" transform="translate(260 2833.027)" fill="#ffb164"/>
    <ellipse id="Ellipse_144" data-name="Ellipse 144" cx="7.5" cy="8" rx="7.5" ry="8" transform="translate(260 3230.027)" fill="#dbd9d6"/>
    <circle id="Ellipse_105" data-name="Ellipse 105" cx="8" cy="8" r="8" transform="translate(62 3031.027)" fill="#dbd9d6"/>
    <ellipse id="Ellipse_49" data-name="Ellipse 49" cx="8" cy="7.5" rx="8" ry="7.5" transform="translate(162 2833.027)" fill="#ffb164"/>
    <circle id="Ellipse_145" data-name="Ellipse 145" cx="8" cy="8" r="8" transform="translate(162 3230.027)" fill="#dbd9d6"/>
    <circle id="Ellipse_115" data-name="Ellipse 115" cx="8" cy="8" r="8" transform="translate(162 3031.027)" fill="#dbd9d6"/>
    <ellipse id="Ellipse_106" data-name="Ellipse 106" cx="8" cy="7.5" rx="8" ry="7.5" transform="translate(62 2982.027)" fill="#dbd9d6"/>
    <ellipse id="Ellipse_50" data-name="Ellipse 50" cx="8" cy="7.5" rx="8" ry="7.5" transform="translate(162 2783.027)" fill="#ffb164"/>
    <circle id="Ellipse_133" data-name="Ellipse 133" cx="8" cy="8" r="8" transform="translate(162 3180.027)" fill="#dbd9d6"/>
    <ellipse id="Ellipse_116" data-name="Ellipse 116" cx="8" cy="7.5" rx="8" ry="7.5" transform="translate(162 2982.027)" fill="#dbd9d6"/>
    <circle id="Ellipse_25" data-name="Ellipse 25" cx="8" cy="8" r="8" transform="translate(62 2683.027)" fill="#ffb164"/>
    <ellipse id="Ellipse_109" data-name="Ellipse 109" cx="8" cy="7.5" rx="8" ry="7.5" transform="translate(62 3081.027)" fill="#dbd9d6"/>
    <circle id="Ellipse_51" data-name="Ellipse 51" cx="8" cy="8" r="8" transform="translate(162 2882.027)" fill="#ffb164"/>
    <circle id="Ellipse_55" data-name="Ellipse 55" cx="8" cy="8" r="8" transform="translate(162 2683.027)" fill="#ffb164"/>
    <ellipse id="Ellipse_117" data-name="Ellipse 117" cx="8" cy="7.5" rx="8" ry="7.5" transform="translate(162 3081.027)" fill="#dbd9d6"/>
    <circle id="Ellipse_29" data-name="Ellipse 29" cx="8" cy="8" r="8" transform="translate(62 2733.027)" fill="#ffb164"/>
    <ellipse id="Ellipse_118" data-name="Ellipse 118" cx="8" cy="7.5" rx="8" ry="7.5" transform="translate(62 3131.027)" fill="#dbd9d6"/>
    <ellipse id="Ellipse_52" data-name="Ellipse 52" cx="8" cy="7.5" rx="8" ry="7.5" transform="translate(162 2932.027)" fill="#ffb164"/>
    <circle id="Ellipse_56" data-name="Ellipse 56" cx="8" cy="8" r="8" transform="translate(162 2733.027)" fill="#ffb164"/>
    <ellipse id="Ellipse_119" data-name="Ellipse 119" cx="8" cy="7.5" rx="8" ry="7.5" transform="translate(162 3131.027)" fill="#dbd9d6"/>
    <ellipse id="Ellipse_33" data-name="Ellipse 33" cx="8" cy="7.5" rx="8" ry="7.5" transform="translate(62 2783.027)" fill="#ffb164"/>
    <circle id="Ellipse_134" data-name="Ellipse 134" cx="8" cy="8" r="8" transform="translate(62 3180.027)" fill="#dbd9d6"/>
    <ellipse id="Ellipse_37" data-name="Ellipse 37" cx="8" cy="7.5" rx="8" ry="7.5" transform="translate(62 2833.027)" fill="#ffb164"/>
    <circle id="Ellipse_146" data-name="Ellipse 146" cx="8" cy="8" r="8" transform="translate(62 3230.027)" fill="#dbd9d6"/>
    <circle id="Ellipse_110" data-name="Ellipse 110" cx="8" cy="8" r="8" transform="translate(112 3031.027)" fill="#dbd9d6"/>
    <ellipse id="Ellipse_111" data-name="Ellipse 111" cx="8" cy="7.5" rx="8" ry="7.5" transform="translate(112 2982.027)" fill="#dbd9d6"/>
    <circle id="Ellipse_26" data-name="Ellipse 26" cx="8" cy="8" r="8" transform="translate(112 2683.027)" fill="#ffb164"/>
    <ellipse id="Ellipse_112" data-name="Ellipse 112" cx="8" cy="7.5" rx="8" ry="7.5" transform="translate(112 3081.027)" fill="#dbd9d6"/>
    <circle id="Ellipse_30" data-name="Ellipse 30" cx="8" cy="8" r="8" transform="translate(112 2733.027)" fill="#ffb164"/>
    <ellipse id="Ellipse_120" data-name="Ellipse 120" cx="8" cy="7.5" rx="8" ry="7.5" transform="translate(112 3131.027)" fill="#dbd9d6"/>
    <ellipse id="Ellipse_34" data-name="Ellipse 34" cx="8" cy="7.5" rx="8" ry="7.5" transform="translate(112 2783.027)" fill="#ffb164"/>
    <circle id="Ellipse_135" data-name="Ellipse 135" cx="8" cy="8" r="8" transform="translate(112 3180.027)" fill="#dbd9d6"/>
    <ellipse id="Ellipse_38" data-name="Ellipse 38" cx="8" cy="7.5" rx="8" ry="7.5" transform="translate(112 2833.027)" fill="#ffb164"/>
    <circle id="Ellipse_148" data-name="Ellipse 148" cx="8" cy="8" r="8" transform="translate(112 3230.027)" fill="#dbd9d6"/>
  </g>
</svg>
