<svg xmlns="http://www.w3.org/2000/svg" xmlns:xlink="http://www.w3.org/1999/xlink" width="792.168" height="408.907" viewBox="0 0 792.168 408.907">
  <defs>
    <linearGradient id="linear-gradient" y1="0.5" x2="1" y2="0.5" gradientUnits="objectBoundingBox">
      <stop offset="0" stop-color="#81d1e7"/>
      <stop offset="0.276" stop-color="#60c9db"/>
      <stop offset="0.546" stop-color="#47c3d2"/>
      <stop offset="0.794" stop-color="#39c0cc"/>
      <stop offset="1" stop-color="#34bfcb"/>
    </linearGradient>
    <filter id="Path_8" x="0" y="0" width="792.168" height="408.907" filterUnits="userSpaceOnUse">
      <feOffset dx="10" dy="10" input="SourceAlpha"/>
      <feGaussianBlur stdDeviation="10" result="blur"/>
      <feFlood flood-opacity="0.161"/>
      <feComposite operator="in" in2="blur"/>
      <feComposite in="SourceGraphic"/>
    </filter>
  </defs>
  <g transform="matrix(1, 0, 0, 1, 0, 0)" filter="url(#Path_8)">
    <path id="Path_8-2" data-name="Path 8" d="M5726.728-3015.569v336.2c-23.852,8.3-52.555,12.638-85.115,12.638h-497.43c-7.333,0-14.381-.309-21.241-.8a283.237,283.237,0,0,1-33.039-3.92c-38.667-7.024-60.241-20.661-73.25-30.879a93.224,93.224,0,0,1-22.093-24.489v-60.456c5.226,13.2,16.637,25.56,39.369,32.355a101.2,101.2,0,0,0,10.232,2.5c84.709,16.061,188.124-73.427,244.017-142.332l98.065-120.88h293.393c.016.025.032.045.048.071Z" transform="translate(-4974.56 3035.64)" fill="url(#linear-gradient)"/>
  </g>
</svg>
