<svg xmlns="http://www.w3.org/2000/svg" width="361" height="167" viewBox="0 0 361 167">
  <g id="Group_199" data-name="Group 199" transform="translate(3044.702 -15.207) rotate(90)">
    <circle id="Ellipse_121" data-name="Ellipse 121" cx="5" cy="5" r="5" transform="translate(140.207 2907.702)" fill="#dbd9d6"/>
    <circle id="Ellipse_122" data-name="Ellipse 122" cx="5" cy="5" r="5" transform="translate(140.207 2875.702)" fill="#dbd9d6"/>
    <circle id="Ellipse_63" data-name="Ellipse 63" cx="5" cy="5" r="5" transform="translate(140.207 2683.702)" fill="#ffb164"/>
    <ellipse id="Ellipse_123" data-name="Ellipse 123" cx="5" cy="4.5" rx="5" ry="4.5" transform="translate(140.207 2938.702)" fill="#dbd9d6"/>
    <circle id="Ellipse_43" data-name="Ellipse 43" cx="5" cy="5" r="5" transform="translate(46.207 2810.702)" fill="#ffb164"/>
    <circle id="Ellipse_92" data-name="Ellipse 92" cx="5" cy="5" r="5" transform="translate(140.207 2810.702)" fill="#ffb164"/>
    <circle id="Ellipse_64" data-name="Ellipse 64" cx="5" cy="5" r="5" transform="translate(140.207 2714.702)" fill="#ffb164"/>
    <ellipse id="Ellipse_124" data-name="Ellipse 124" cx="5" cy="4.5" rx="5" ry="4.5" transform="translate(140.207 2970.702)" fill="#dbd9d6"/>
    <circle id="Ellipse_44" data-name="Ellipse 44" cx="5" cy="5" r="5" transform="translate(46.207 2842.702)" fill="#ffb164"/>
    <circle id="Ellipse_97" data-name="Ellipse 97" cx="5" cy="5" r="5" transform="translate(140.207 2842.702)" fill="#ffb164"/>
    <circle id="Ellipse_69" data-name="Ellipse 69" cx="5" cy="5" r="5" transform="translate(140.207 2746.702)" fill="#ffb164"/>
    <ellipse id="Ellipse_126" data-name="Ellipse 126" cx="5" cy="5.5" rx="5" ry="5.5" transform="translate(140.207 3001.702)" fill="#dbd9d6"/>
    <ellipse id="Ellipse_76" data-name="Ellipse 76" cx="5" cy="4.5" rx="5" ry="4.5" transform="translate(140.207 2779.702)" fill="#ffb164"/>
    <circle id="Ellipse_142" data-name="Ellipse 142" cx="5" cy="5" r="5" transform="translate(140.207 3034.702)" fill="#dbd9d6"/>
    <circle id="Ellipse_103" data-name="Ellipse 103" cx="5" cy="5" r="5" transform="translate(15.207 2907.702)" fill="#dbd9d6"/>
    <ellipse id="Ellipse_127" data-name="Ellipse 127" cx="4.5" cy="5" rx="4.5" ry="5" transform="translate(173.207 2907.702)" fill="#dbd9d6"/>
    <circle id="Ellipse_104" data-name="Ellipse 104" cx="5" cy="5" r="5" transform="translate(15.207 2875.702)" fill="#dbd9d6"/>
    <ellipse id="Ellipse_128" data-name="Ellipse 128" cx="4.5" cy="5" rx="4.5" ry="5" transform="translate(173.207 2875.702)" fill="#dbd9d6"/>
    <circle id="Ellipse_24" data-name="Ellipse 24" cx="5" cy="5" r="5" transform="translate(15.207 2683.702)" fill="#ffb164"/>
    <ellipse id="Ellipse_108" data-name="Ellipse 108" cx="5" cy="4.5" rx="5" ry="4.5" transform="translate(15.207 2938.702)" fill="#dbd9d6"/>
    <ellipse id="Ellipse_67" data-name="Ellipse 67" cx="4.5" cy="5" rx="4.5" ry="5" transform="translate(173.207 2683.702)" fill="#ffb164"/>
    <circle id="Ellipse_129" data-name="Ellipse 129" cx="4.5" cy="4.5" r="4.5" transform="translate(173.207 2938.702)" fill="#dbd9d6"/>
    <circle id="Ellipse_45" data-name="Ellipse 45" cx="5" cy="5" r="5" transform="translate(76.207 2810.702)" fill="#ffb164"/>
    <circle id="Ellipse_59" data-name="Ellipse 59" cx="5" cy="5" r="5" transform="translate(15.207 2810.702)" fill="#ffb164"/>
    <ellipse id="Ellipse_94" data-name="Ellipse 94" cx="4.5" cy="5" rx="4.5" ry="5" transform="translate(173.207 2810.702)" fill="#ffb164"/>
    <circle id="Ellipse_28" data-name="Ellipse 28" cx="5" cy="5" r="5" transform="translate(15.207 2714.702)" fill="#ffb164"/>
    <ellipse id="Ellipse_114" data-name="Ellipse 114" cx="5" cy="4.5" rx="5" ry="4.5" transform="translate(15.207 2970.702)" fill="#dbd9d6"/>
    <ellipse id="Ellipse_68" data-name="Ellipse 68" cx="4.5" cy="5" rx="4.5" ry="5" transform="translate(173.207 2714.702)" fill="#ffb164"/>
    <circle id="Ellipse_130" data-name="Ellipse 130" cx="4.5" cy="4.5" r="4.5" transform="translate(173.207 2970.702)" fill="#dbd9d6"/>
    <circle id="Ellipse_46" data-name="Ellipse 46" cx="5" cy="5" r="5" transform="translate(76.207 2842.702)" fill="#ffb164"/>
    <circle id="Ellipse_60" data-name="Ellipse 60" cx="5" cy="5" r="5" transform="translate(15.207 2842.702)" fill="#ffb164"/>
    <ellipse id="Ellipse_99" data-name="Ellipse 99" cx="4.5" cy="5" rx="4.5" ry="5" transform="translate(173.207 2842.702)" fill="#ffb164"/>
    <circle id="Ellipse_32" data-name="Ellipse 32" cx="5" cy="5" r="5" transform="translate(15.207 2746.702)" fill="#ffb164"/>
    <ellipse id="Ellipse_131" data-name="Ellipse 131" cx="5" cy="5.5" rx="5" ry="5.5" transform="translate(15.207 3001.702)" fill="#dbd9d6"/>
    <ellipse id="Ellipse_70" data-name="Ellipse 70" cx="4.5" cy="5" rx="4.5" ry="5" transform="translate(173.207 2746.702)" fill="#ffb164"/>
    <ellipse id="Ellipse_132" data-name="Ellipse 132" cx="4.5" cy="5.5" rx="4.5" ry="5.5" transform="translate(173.207 3001.702)" fill="#dbd9d6"/>
    <ellipse id="Ellipse_36" data-name="Ellipse 36" cx="5" cy="4.5" rx="5" ry="4.5" transform="translate(15.207 2779.702)" fill="#ffb164"/>
    <circle id="Ellipse_143" data-name="Ellipse 143" cx="5" cy="5" r="5" transform="translate(15.207 3034.702)" fill="#dbd9d6"/>
    <circle id="Ellipse_77" data-name="Ellipse 77" cx="4.5" cy="4.5" r="4.5" transform="translate(173.207 2779.702)" fill="#ffb164"/>
    <ellipse id="Ellipse_144" data-name="Ellipse 144" cx="4.5" cy="5" rx="4.5" ry="5" transform="translate(173.207 3034.702)" fill="#dbd9d6"/>
    <circle id="Ellipse_105" data-name="Ellipse 105" cx="5" cy="5" r="5" transform="translate(46.207 2907.702)" fill="#dbd9d6"/>
    <ellipse id="Ellipse_49" data-name="Ellipse 49" cx="5" cy="4.5" rx="5" ry="4.5" transform="translate(109.207 2779.702)" fill="#ffb164"/>
    <circle id="Ellipse_145" data-name="Ellipse 145" cx="5" cy="5" r="5" transform="translate(109.207 3034.702)" fill="#dbd9d6"/>
    <circle id="Ellipse_115" data-name="Ellipse 115" cx="5" cy="5" r="5" transform="translate(109.207 2907.702)" fill="#dbd9d6"/>
    <circle id="Ellipse_106" data-name="Ellipse 106" cx="5" cy="5" r="5" transform="translate(46.207 2875.702)" fill="#dbd9d6"/>
    <circle id="Ellipse_50" data-name="Ellipse 50" cx="5" cy="5" r="5" transform="translate(109.207 2746.702)" fill="#ffb164"/>
    <ellipse id="Ellipse_133" data-name="Ellipse 133" cx="5" cy="5.5" rx="5" ry="5.5" transform="translate(109.207 3001.702)" fill="#dbd9d6"/>
    <circle id="Ellipse_116" data-name="Ellipse 116" cx="5" cy="5" r="5" transform="translate(109.207 2875.702)" fill="#dbd9d6"/>
    <circle id="Ellipse_25" data-name="Ellipse 25" cx="5" cy="5" r="5" transform="translate(46.207 2683.702)" fill="#ffb164"/>
    <ellipse id="Ellipse_109" data-name="Ellipse 109" cx="5" cy="4.5" rx="5" ry="4.5" transform="translate(46.207 2938.702)" fill="#dbd9d6"/>
    <circle id="Ellipse_51" data-name="Ellipse 51" cx="5" cy="5" r="5" transform="translate(109.207 2810.702)" fill="#ffb164"/>
    <circle id="Ellipse_55" data-name="Ellipse 55" cx="5" cy="5" r="5" transform="translate(109.207 2683.702)" fill="#ffb164"/>
    <ellipse id="Ellipse_117" data-name="Ellipse 117" cx="5" cy="4.5" rx="5" ry="4.5" transform="translate(109.207 2938.702)" fill="#dbd9d6"/>
    <circle id="Ellipse_29" data-name="Ellipse 29" cx="5" cy="5" r="5" transform="translate(46.207 2714.702)" fill="#ffb164"/>
    <ellipse id="Ellipse_118" data-name="Ellipse 118" cx="5" cy="4.5" rx="5" ry="4.5" transform="translate(46.207 2970.702)" fill="#dbd9d6"/>
    <circle id="Ellipse_52" data-name="Ellipse 52" cx="5" cy="5" r="5" transform="translate(109.207 2842.702)" fill="#ffb164"/>
    <circle id="Ellipse_56" data-name="Ellipse 56" cx="5" cy="5" r="5" transform="translate(109.207 2714.702)" fill="#ffb164"/>
    <ellipse id="Ellipse_119" data-name="Ellipse 119" cx="5" cy="4.5" rx="5" ry="4.5" transform="translate(109.207 2970.702)" fill="#dbd9d6"/>
    <circle id="Ellipse_33" data-name="Ellipse 33" cx="5" cy="5" r="5" transform="translate(46.207 2746.702)" fill="#ffb164"/>
    <ellipse id="Ellipse_134" data-name="Ellipse 134" cx="5" cy="5.5" rx="5" ry="5.5" transform="translate(46.207 3001.702)" fill="#dbd9d6"/>
    <ellipse id="Ellipse_37" data-name="Ellipse 37" cx="5" cy="4.5" rx="5" ry="4.5" transform="translate(46.207 2779.702)" fill="#ffb164"/>
    <circle id="Ellipse_146" data-name="Ellipse 146" cx="5" cy="5" r="5" transform="translate(46.207 3034.702)" fill="#dbd9d6"/>
    <circle id="Ellipse_110" data-name="Ellipse 110" cx="5" cy="5" r="5" transform="translate(76.207 2907.702)" fill="#dbd9d6"/>
    <circle id="Ellipse_111" data-name="Ellipse 111" cx="5" cy="5" r="5" transform="translate(76.207 2875.702)" fill="#dbd9d6"/>
    <circle id="Ellipse_26" data-name="Ellipse 26" cx="5" cy="5" r="5" transform="translate(76.207 2683.702)" fill="#ffb164"/>
    <ellipse id="Ellipse_112" data-name="Ellipse 112" cx="5" cy="4.5" rx="5" ry="4.5" transform="translate(76.207 2938.702)" fill="#dbd9d6"/>
    <circle id="Ellipse_30" data-name="Ellipse 30" cx="5" cy="5" r="5" transform="translate(76.207 2714.702)" fill="#ffb164"/>
    <ellipse id="Ellipse_120" data-name="Ellipse 120" cx="5" cy="4.5" rx="5" ry="4.5" transform="translate(76.207 2970.702)" fill="#dbd9d6"/>
    <circle id="Ellipse_34" data-name="Ellipse 34" cx="5" cy="5" r="5" transform="translate(76.207 2746.702)" fill="#ffb164"/>
    <ellipse id="Ellipse_135" data-name="Ellipse 135" cx="5" cy="5.5" rx="5" ry="5.5" transform="translate(76.207 3001.702)" fill="#dbd9d6"/>
    <ellipse id="Ellipse_38" data-name="Ellipse 38" cx="5" cy="4.5" rx="5" ry="4.5" transform="translate(76.207 2779.702)" fill="#ffb164"/>
    <circle id="Ellipse_148" data-name="Ellipse 148" cx="5" cy="5" r="5" transform="translate(76.207 3034.702)" fill="#dbd9d6"/>
  </g>
</svg>
