<svg xmlns="http://www.w3.org/2000/svg" width="60" height="52.5" viewBox="0 0 60 52.5"><defs><style>.a{fill:#2fc0cc;}</style></defs><path class="a" d="M54.375,28.5H45V21a7.507,7.507,0,0,1,7.5-7.5h.938a2.806,2.806,0,0,0,2.813-2.812V5.063A2.806,2.806,0,0,0,53.438,2.25H52.5A18.745,18.745,0,0,0,33.75,21V49.125a5.626,5.626,0,0,0,5.625,5.625h15A5.626,5.626,0,0,0,60,49.125v-15A5.626,5.626,0,0,0,54.375,28.5Zm-33.75,0H11.25V21a7.507,7.507,0,0,1,7.5-7.5h.938A2.806,2.806,0,0,0,22.5,10.688V5.063A2.806,2.806,0,0,0,19.688,2.25H18.75A18.745,18.745,0,0,0,0,21V49.125A5.626,5.626,0,0,0,5.625,54.75h15a5.626,5.626,0,0,0,5.625-5.625v-15A5.626,5.626,0,0,0,20.625,28.5Z" transform="translate(0 -2.25)"/></svg>